<svg width="108" height="108" viewBox="0 0 108 108" xmlns="http://www.w3.org/2000/svg"><g fill="none"><path stroke="#252B3A" stroke-width="4" d="M4 4h100v100h-100z"/><path d="M16.608 90.033c0-.439.077-.849.23-1.228.153-.38.373-.709.659-.989.286-.28.629-.499 1.029-.659.4-.16.852-.24 1.358-.24.493 0 .942.08 1.348.24.406.16.756.38 1.049.659.293.28.516.609.669.989.153.38.23.789.23 1.228 0 .439-.077.849-.23 1.228-.153.38-.376.706-.669.979-.293.273-.643.489-1.049.649-.406.16-.856.24-1.348.24-.506 0-.959-.08-1.358-.24-.4-.16-.742-.376-1.029-.649-.286-.273-.506-.599-.659-.979-.153-.38-.23-.789-.23-1.228zm23.591-18.547c1.025.579 1.858 1.382 2.497 2.407v-10.387h5.773v29.403h-5.533v-3.016c-.812 1.292-1.738 2.231-2.777 2.816-1.039.586-2.33.879-3.875.879-2.544 0-4.684-1.029-6.422-3.086-1.738-2.057-2.607-4.697-2.607-7.92 0-3.715.856-6.638 2.567-8.769 1.711-2.131 3.998-3.196 6.861-3.196 1.318 0 2.49.29 3.516.869zm1.398 15.511c.839-1.199 1.258-2.75 1.258-4.654 0-2.663-.672-4.568-2.017-5.713-.826-.692-1.784-1.039-2.876-1.039-1.665 0-2.886.629-3.665 1.888-.779 1.258-1.169 2.82-1.169 4.684 0 2.011.396 3.619 1.189 4.824.792 1.205 1.994 1.808 3.606 1.808 1.611 0 2.836-.599 3.675-1.798zm17.568-10.507c-.726.826-1.182 1.944-1.368 3.356h8.849c-.093-1.505-.549-2.647-1.368-3.426-.819-.779-1.834-1.169-3.046-1.169-1.318 0-2.34.413-3.066 1.238zm7.96-4.914c1.452.679 2.65 1.751 3.596 3.216.852 1.292 1.405 2.79 1.658 4.494.146.999.206 2.437.18 4.315h-14.901c.08 2.184.766 3.715 2.057 4.594.786.546 1.731.819 2.836.819 1.172 0 2.124-.333 2.856-.999.4-.36.752-.859 1.059-1.498h5.813c-.146 1.292-.819 2.603-2.017 3.935-1.864 2.117-4.474 3.176-7.83 3.176-2.77 0-5.214-.892-7.331-2.677-2.117-1.784-3.176-4.687-3.176-8.709 0-3.769.955-6.658 2.866-8.669s4.391-3.016 7.441-3.016c1.811 0 3.442.34 4.894 1.019zm22.692-.439h6.112l-7.85 21.773h-6.013l-7.81-21.773h6.392l4.534 16.06 4.634-16.06z" fill="#252B3A"/></g></svg>